<svg width="179" height="19" viewBox="0 0 179 19" fill="none" xmlns="http://www.w3.org/2000/svg">
<path d="M12.1364 6.41761C11.9943 5.95739 11.7983 5.54545 11.5483 5.18182C11.304 4.8125 11.0085 4.49716 10.6619 4.2358C10.321 3.97443 9.92898 3.77841 9.4858 3.64773C9.04261 3.51136 8.55966 3.44318 8.03693 3.44318C7.09943 3.44318 6.2642 3.67898 5.53125 4.15057C4.7983 4.62216 4.22159 5.31534 3.80114 6.23011C3.38636 7.1392 3.17898 8.24716 3.17898 9.55398C3.17898 10.8722 3.38636 11.9886 3.80114 12.9034C4.21591 13.8182 4.79261 14.5142 5.53125 14.9915C6.26989 15.4631 7.12784 15.6989 8.10511 15.6989C8.99148 15.6989 9.75852 15.5284 10.4062 15.1875C11.0597 14.8466 11.5625 14.3636 11.9148 13.7386C12.267 13.108 12.4432 12.3693 12.4432 11.5227L13.1591 11.6335H8.42045V9.16193H15.5028V11.2585C15.5028 12.7528 15.1847 14.0455 14.5483 15.1364C13.9119 16.2273 13.0369 17.0682 11.9233 17.6591C10.8097 18.2443 9.53125 18.5369 8.08807 18.5369C6.48011 18.5369 5.06818 18.1761 3.85227 17.4545C2.64205 16.7273 1.69602 15.696 1.0142 14.3608C0.338068 13.0199 0 11.429 0 9.58807C0 8.17898 0.198864 6.92045 0.596591 5.8125C1 4.70455 1.5625 3.7642 2.28409 2.99148C3.00568 2.21307 3.85227 1.62216 4.82386 1.21875C5.79545 0.809659 6.85227 0.605114 7.99432 0.605114C8.96023 0.605114 9.8608 0.747159 10.696 1.03125C11.5312 1.30966 12.2727 1.70739 12.9205 2.22443C13.5739 2.74148 14.1108 3.35511 14.5312 4.06534C14.9517 4.77557 15.2273 5.55966 15.358 6.41761H12.1364Z" fill="#EDF2FF"/>
<path d="M24.2195 18.554C22.907 18.554 21.7734 18.2812 20.8189 17.7358C19.87 17.1847 19.1399 16.4062 18.6286 15.4006C18.1172 14.3892 17.8615 13.1989 17.8615 11.8295C17.8615 10.483 18.1172 9.30114 18.6286 8.28409C19.1456 7.26136 19.8672 6.46591 20.7933 5.89773C21.7195 5.32386 22.8075 5.03693 24.0575 5.03693C24.8643 5.03693 25.6257 5.16761 26.3416 5.42898C27.0632 5.68466 27.6996 6.08239 28.2507 6.62216C28.8075 7.16193 29.245 7.84943 29.5632 8.68466C29.8814 9.51421 30.0405 10.5028 30.0405 11.6506V12.5966H19.3104V10.517H27.0831C27.0774 9.92614 26.9496 9.40057 26.6996 8.94034C26.4496 8.47443 26.1001 8.10795 25.6513 7.84091C25.2081 7.57386 24.6911 7.44034 24.1001 7.44034C23.4695 7.44034 22.9155 7.59375 22.4382 7.90057C21.9609 8.2017 21.5888 8.59943 21.3217 9.09375C21.0604 9.58239 20.9268 10.1193 20.9212 10.7045V12.5199C20.9212 13.2812 21.0604 13.9347 21.3388 14.4801C21.6172 15.0199 22.0064 15.4347 22.5064 15.7244C23.0064 16.0085 23.5916 16.1506 24.2621 16.1506C24.7109 16.1506 25.1172 16.0881 25.4808 15.9631C25.8445 15.8324 26.1598 15.642 26.4268 15.392C26.6939 15.142 26.8956 14.8324 27.032 14.4631L29.9126 14.7869C29.7308 15.5483 29.3842 16.2131 28.8729 16.7812C28.3672 17.3438 27.7195 17.7812 26.9297 18.0938C26.1399 18.4006 25.2365 18.554 24.2195 18.554Z" fill="#EDF2FF"/>
<path d="M35.7358 10.6278V18.2983H32.6506V5.20739H35.5994V7.43182H35.7528C36.054 6.69886 36.5341 6.11648 37.1932 5.68466C37.858 5.25284 38.679 5.03693 39.6562 5.03693C40.5597 5.03693 41.3466 5.23011 42.017 5.61648C42.6932 6.00284 43.2159 6.5625 43.5852 7.29545C43.9602 8.02841 44.1449 8.91761 44.1392 9.96307V18.2983H41.054V10.4403C41.054 9.56534 40.8267 8.88068 40.3722 8.38636C39.9233 7.89205 39.3011 7.64489 38.5057 7.64489C37.9659 7.64489 37.4858 7.7642 37.0653 8.00284C36.6506 8.2358 36.3239 8.57386 36.0852 9.01705C35.8523 9.46023 35.7358 9.99716 35.7358 10.6278Z" fill="#EDF2FF"/>
<path d="M53.071 18.554C51.7585 18.554 50.625 18.2812 49.6705 17.7358C48.7216 17.1847 47.9915 16.4062 47.4801 15.4006C46.9688 14.3892 46.7131 13.1989 46.7131 11.8295C46.7131 10.483 46.9688 9.30114 47.4801 8.28409C47.9972 7.26136 48.7188 6.46591 49.6449 5.89773C50.571 5.32386 51.6591 5.03693 52.9091 5.03693C53.7159 5.03693 54.4773 5.16761 55.1932 5.42898C55.9148 5.68466 56.5511 6.08239 57.1023 6.62216C57.6591 7.16193 58.0966 7.84943 58.4148 8.68466C58.733 9.51421 58.892 10.5028 58.892 11.6506V12.5966H48.1619V10.517H55.9347C55.929 9.92614 55.8011 9.40057 55.5511 8.94034C55.3011 8.47443 54.9517 8.10795 54.5028 7.84091C54.0597 7.57386 53.5426 7.44034 52.9517 7.44034C52.321 7.44034 51.767 7.59375 51.2898 7.90057C50.8125 8.2017 50.4403 8.59943 50.1733 9.09375C49.9119 9.58239 49.7784 10.1193 49.7727 10.7045V12.5199C49.7727 13.2812 49.9119 13.9347 50.1903 14.4801C50.4688 15.0199 50.858 15.4347 51.358 15.7244C51.858 16.0085 52.4432 16.1506 53.1136 16.1506C53.5625 16.1506 53.9688 16.0881 54.3324 15.9631C54.696 15.8324 55.0114 15.642 55.2784 15.392C55.5455 15.142 55.7472 14.8324 55.8835 14.4631L58.7642 14.7869C58.5824 15.5483 58.2358 16.2131 57.7244 16.7812C57.2188 17.3438 56.571 17.7812 55.7812 18.0938C54.9915 18.4006 54.0881 18.554 53.071 18.554Z" fill="#EDF2FF"/>
<path d="M61.5021 18.2983V5.20739H64.4936V7.3892H64.63C64.8686 6.63352 65.2777 6.05114 65.8572 5.64205C66.4425 5.22727 67.1101 5.01989 67.8601 5.01989C68.0305 5.01989 68.2209 5.02841 68.4311 5.04545C68.647 5.05682 68.826 5.0767 68.968 5.10511V7.94318C68.8374 7.89773 68.63 7.85795 68.3459 7.82386C68.0675 7.78409 67.7976 7.7642 67.5362 7.7642C66.9737 7.7642 66.468 7.88636 66.0192 8.13068C65.576 8.36932 65.2266 8.7017 64.9709 9.12784C64.7152 9.55398 64.5874 10.0455 64.5874 10.6023V18.2983H61.5021Z" fill="#EDF2FF"/>
<path d="M71.0178 18.2983V5.20739H74.103V18.2983H71.0178ZM72.5689 3.34943C72.0803 3.34943 71.6598 3.1875 71.3075 2.86364C70.9553 2.53409 70.7791 2.1392 70.7791 1.67898C70.7791 1.21307 70.9553 0.818182 71.3075 0.494318C71.6598 0.164773 72.0803 0 72.5689 0C73.0632 0 73.4837 0.164773 73.8303 0.494318C74.1825 0.818182 74.3587 1.21307 74.3587 1.67898C74.3587 2.1392 74.1825 2.53409 73.8303 2.86364C73.4837 3.1875 73.0632 3.34943 72.5689 3.34943Z" fill="#EDF2FF"/>
<path d="M82.9858 18.554C81.679 18.554 80.5568 18.267 79.6193 17.6932C78.6875 17.1193 77.9688 16.3267 77.4631 15.3153C76.9631 14.2983 76.7131 13.1278 76.7131 11.804C76.7131 10.4744 76.9688 9.30114 77.4801 8.28409C77.9915 7.26136 78.7131 6.46591 79.6449 5.89773C80.5824 5.32386 81.6903 5.03693 82.9688 5.03693C84.0312 5.03693 84.9716 5.23295 85.7898 5.625C86.6136 6.01136 87.2699 6.55966 87.7585 7.26989C88.2472 7.97443 88.5256 8.7983 88.5938 9.74148H85.6449C85.5256 9.1108 85.2415 8.58523 84.7926 8.16477C84.3494 7.73864 83.7557 7.52557 83.0114 7.52557C82.3807 7.52557 81.8267 7.69602 81.3494 8.03693C80.8722 8.37216 80.5 8.85511 80.233 9.4858C79.9716 10.1165 79.8409 10.8722 79.8409 11.7528C79.8409 12.6449 79.9716 13.4119 80.233 14.054C80.4943 14.6903 80.8608 15.1818 81.3324 15.5284C81.8097 15.8693 82.3693 16.0398 83.0114 16.0398C83.4659 16.0398 83.8722 15.9545 84.2301 15.7841C84.5938 15.608 84.8977 15.3551 85.142 15.0256C85.3864 14.696 85.554 14.2955 85.6449 13.8239H88.5938C88.5199 14.75 88.2472 15.571 87.7756 16.2869C87.304 16.9972 86.6619 17.554 85.8494 17.9574C85.0369 18.3551 84.0824 18.554 82.9858 18.554Z" fill="#EDF2FF"/>
<path d="M112.157 6.73295H108.969C108.879 6.21023 108.711 5.74716 108.467 5.34375C108.222 4.93466 107.918 4.58807 107.555 4.30398C107.191 4.01989 106.776 3.80682 106.31 3.66477C105.85 3.51705 105.353 3.44318 104.819 3.44318C103.87 3.44318 103.029 3.68182 102.296 4.15909C101.563 4.63068 100.989 5.32386 100.575 6.23864C100.16 7.14773 99.9524 8.25852 99.9524 9.57102C99.9524 10.9062 100.16 12.0312 100.575 12.946C100.995 13.8551 101.569 14.5426 102.296 15.0085C103.029 15.4688 103.867 15.6989 104.81 15.6989C105.333 15.6989 105.822 15.6307 106.276 15.4943C106.737 15.3523 107.148 15.1449 107.512 14.8722C107.881 14.5994 108.191 14.2642 108.441 13.8665C108.697 13.4688 108.873 13.0142 108.969 12.5028L112.157 12.5199C112.038 13.3494 111.779 14.1278 111.381 14.8551C110.989 15.5824 110.475 16.2244 109.839 16.7812C109.202 17.3324 108.458 17.7642 107.606 18.0767C106.754 18.3835 105.808 18.5369 104.768 18.5369C103.234 18.5369 101.864 18.1818 100.66 17.4716C99.4553 16.7614 98.5064 15.7358 97.8132 14.3949C97.12 13.054 96.7734 11.446 96.7734 9.57102C96.7734 7.69034 97.1229 6.08239 97.8217 4.74716C98.5206 3.40625 99.4723 2.38068 100.677 1.67045C101.881 0.960227 103.245 0.605114 104.768 0.605114C105.739 0.605114 106.643 0.741477 107.478 1.0142C108.313 1.28693 109.058 1.6875 109.711 2.21591C110.364 2.73864 110.901 3.38068 111.322 4.14205C111.748 4.89773 112.026 5.76136 112.157 6.73295Z" fill="#EDF2FF"/>
<path d="M120.626 18.554C119.348 18.554 118.24 18.2727 117.303 17.7102C116.365 17.1477 115.638 16.3608 115.121 15.3494C114.609 14.3381 114.354 13.1563 114.354 11.804C114.354 10.4517 114.609 9.26705 115.121 8.25C115.638 7.23295 116.365 6.44318 117.303 5.88068C118.24 5.31818 119.348 5.03693 120.626 5.03693C121.905 5.03693 123.013 5.31818 123.95 5.88068C124.888 6.44318 125.612 7.23295 126.124 8.25C126.641 9.26705 126.899 10.4517 126.899 11.804C126.899 13.1563 126.641 14.3381 126.124 15.3494C125.612 16.3608 124.888 17.1477 123.95 17.7102C123.013 18.2727 121.905 18.554 120.626 18.554ZM120.643 16.0824C121.337 16.0824 121.916 15.892 122.382 15.5114C122.848 15.125 123.195 14.608 123.422 13.9602C123.655 13.3125 123.771 12.5909 123.771 11.7955C123.771 10.9943 123.655 10.2699 123.422 9.62216C123.195 8.96875 122.848 8.44886 122.382 8.0625C121.916 7.67614 121.337 7.48295 120.643 7.48295C119.933 7.48295 119.342 7.67614 118.871 8.0625C118.405 8.44886 118.055 8.96875 117.822 9.62216C117.595 10.2699 117.482 10.9943 117.482 11.7955C117.482 12.5909 117.595 13.3125 117.822 13.9602C118.055 14.608 118.405 15.125 118.871 15.5114C119.342 15.892 119.933 16.0824 120.643 16.0824Z" fill="#EDF2FF"/>
<path d="M137.862 12.7926V5.20739H140.947V18.2983H137.955V15.9716H137.819C137.523 16.7045 137.038 17.304 136.362 17.7699C135.691 18.2358 134.864 18.4688 133.881 18.4688C133.023 18.4688 132.265 18.2784 131.606 17.8977C130.952 17.5114 130.441 16.9517 130.072 16.2188C129.702 15.4801 129.518 14.5881 129.518 13.5426V5.20739H132.603V13.0653C132.603 13.8949 132.83 14.554 133.285 15.0426C133.739 15.5312 134.336 15.7756 135.075 15.7756C135.529 15.7756 135.969 15.6648 136.396 15.4432C136.822 15.2216 137.171 14.892 137.444 14.4545C137.722 14.0114 137.862 13.4574 137.862 12.7926Z" fill="#EDF2FF"/>
<path d="M144.119 18.2983V5.20739H147.111V7.3892H147.247C147.486 6.63352 147.895 6.05114 148.474 5.64205C149.06 5.22727 149.727 5.01989 150.477 5.01989C150.648 5.01989 150.838 5.02841 151.048 5.04545C151.264 5.05682 151.443 5.0767 151.585 5.10511V7.94318C151.455 7.89773 151.247 7.85795 150.963 7.82386C150.685 7.78409 150.415 7.7642 150.153 7.7642C149.591 7.7642 149.085 7.88636 148.636 8.13068C148.193 8.36932 147.844 8.7017 147.588 9.12784C147.332 9.55398 147.205 10.0455 147.205 10.6023V18.2983H144.119Z" fill="#EDF2FF"/>
<path d="M163.982 8.66761L161.169 8.97443C161.089 8.69034 160.95 8.4233 160.751 8.1733C160.558 7.9233 160.297 7.72159 159.967 7.56818C159.638 7.41477 159.234 7.33807 158.757 7.33807C158.115 7.33807 157.575 7.47727 157.138 7.75568C156.706 8.03409 156.493 8.39489 156.499 8.83807C156.493 9.21875 156.632 9.52841 156.916 9.76705C157.206 10.0057 157.683 10.2017 158.348 10.3551L160.581 10.8324C161.82 11.0994 162.74 11.5227 163.342 12.1023C163.95 12.6818 164.257 13.4403 164.263 14.3778C164.257 15.2017 164.016 15.929 163.538 16.5597C163.067 17.1847 162.411 17.6733 161.57 18.0256C160.729 18.3778 159.763 18.554 158.672 18.554C157.07 18.554 155.78 18.2188 154.803 17.5483C153.825 16.8722 153.243 15.9318 153.055 14.7273L156.064 14.4375C156.2 15.0284 156.49 15.4744 156.933 15.7756C157.376 16.0767 157.953 16.2273 158.663 16.2273C159.396 16.2273 159.984 16.0767 160.428 15.7756C160.876 15.4744 161.101 15.1023 161.101 14.6591C161.101 14.2841 160.956 13.9744 160.666 13.7301C160.382 13.4858 159.939 13.2983 159.337 13.1676L157.104 12.6989C155.848 12.4375 154.919 11.9972 154.317 11.3778C153.714 10.7528 153.416 9.96307 153.422 9.00852C153.416 8.2017 153.635 7.50284 154.078 6.91193C154.527 6.31534 155.149 5.85511 155.945 5.53125C156.746 5.2017 157.669 5.03693 158.714 5.03693C160.249 5.03693 161.456 5.36364 162.337 6.01705C163.223 6.67045 163.771 7.55398 163.982 8.66761Z" fill="#EDF2FF"/>
<path d="M172.602 18.554C171.29 18.554 170.156 18.2812 169.202 17.7358C168.253 17.1847 167.523 16.4062 167.011 15.4006C166.5 14.3892 166.244 13.1989 166.244 11.8295C166.244 10.483 166.5 9.30114 167.011 8.28409C167.528 7.26136 168.25 6.46591 169.176 5.89773C170.102 5.32386 171.19 5.03693 172.44 5.03693C173.247 5.03693 174.009 5.16761 174.724 5.42898C175.446 5.68466 176.082 6.08239 176.634 6.62216C177.19 7.16193 177.628 7.84943 177.946 8.68466C178.264 9.51421 178.423 10.5028 178.423 11.6506V12.5966H167.693V10.517H175.466C175.46 9.92614 175.332 9.40057 175.082 8.94034C174.832 8.47443 174.483 8.10795 174.034 7.84091C173.591 7.57386 173.074 7.44034 172.483 7.44034C171.852 7.44034 171.298 7.59375 170.821 7.90057C170.344 8.2017 169.972 8.59943 169.705 9.09375C169.443 9.58239 169.31 10.1193 169.304 10.7045V12.5199C169.304 13.2812 169.443 13.9347 169.722 14.4801C170 15.0199 170.389 15.4347 170.889 15.7244C171.389 16.0085 171.974 16.1506 172.645 16.1506C173.094 16.1506 173.5 16.0881 173.864 15.9631C174.227 15.8324 174.543 15.642 174.81 15.392C175.077 15.142 175.278 14.8324 175.415 14.4631L178.295 14.7869C178.114 15.5483 177.767 16.2131 177.256 16.7812C176.75 17.3438 176.102 17.7812 175.312 18.0938C174.523 18.4006 173.619 18.554 172.602 18.554Z" fill="#EDF2FF"/>
</svg>
