<svg width="200" height="21" viewBox="0 0 200 21" fill="none" xmlns="http://www.w3.org/2000/svg">
<path d="M13.604 7.1937C13.4448 6.67781 13.2251 6.21607 12.9448 5.80846C12.671 5.39448 12.3398 5.041 11.9513 4.74803C11.5691 4.45506 11.1297 4.23533 10.6329 4.08885C10.1361 3.93599 9.59478 3.85957 9.00884 3.85957C7.95796 3.85957 7.02173 4.12388 6.20014 4.6525C5.37855 5.18112 4.73211 5.95812 4.26081 6.98352C3.79588 8.00255 3.56341 9.24449 3.56341 10.7093C3.56341 12.1869 3.79588 13.4384 4.26081 14.4638C4.72574 15.4892 5.37218 16.2694 6.20014 16.8044C7.0281 17.333 7.98981 17.5973 9.08526 17.5973C10.0788 17.5973 10.9386 17.4063 11.6647 17.0241C12.3971 16.642 12.9608 16.1006 13.3556 15.4001C13.7505 14.6931 13.9479 13.8651 13.9479 12.9162L14.7504 13.0404H9.43874V10.2699H17.3776V12.62C17.3776 14.295 17.0209 15.744 16.3076 16.9668C15.5943 18.1896 14.6135 19.1322 13.3652 19.7946C12.1169 20.4506 10.6839 20.7786 9.06616 20.7786C7.26375 20.7786 5.68108 20.3742 4.31813 19.5653C2.96155 18.7501 1.90112 17.5941 1.13685 16.0974C0.378951 14.5944 0 12.8111 0 10.7476C0 9.16806 0.222912 7.75734 0.668737 6.51541C1.12093 5.27347 1.75145 4.21941 2.56031 3.35324C3.36916 2.48069 4.31813 1.81833 5.40721 1.36613C6.4963 0.907571 7.68092 0.67829 8.96107 0.67829C10.0438 0.67829 11.0533 0.837513 11.9895 1.15596C12.9257 1.46804 13.7569 1.91386 14.4829 2.49343C15.2153 3.073 15.8172 3.76085 16.2885 4.55696C16.7598 5.35308 17.0687 6.23199 17.2152 7.1937H13.604Z" fill="#F8F9FA"/>
<path d="M27.1483 20.7977C25.6771 20.7977 24.4065 20.492 23.3365 19.8806C22.2729 19.2628 21.4545 18.3903 20.8813 17.263C20.3081 16.1293 20.0215 14.795 20.0215 13.2601C20.0215 11.7507 20.3081 10.4259 20.8813 9.28589C21.4609 8.13948 22.2697 7.24783 23.3079 6.61094C24.346 5.96768 25.5656 5.64605 26.9668 5.64605C27.8712 5.64605 28.7246 5.79253 29.5271 6.0855C30.336 6.3721 31.0493 6.81793 31.6671 7.42298C32.2912 8.02802 32.7816 8.79866 33.1383 9.7349C33.4949 10.6648 33.6733 11.7729 33.6733 13.0595V14.1199H21.6456V11.7889H30.3583C30.3519 11.1265 30.2086 10.5374 29.9283 10.0215C29.6481 9.49924 29.2564 9.08845 28.7533 8.78911C28.2565 8.48977 27.6769 8.3401 27.0146 8.3401C26.3076 8.3401 25.6866 8.51206 25.1517 8.85598C24.6167 9.19354 24.1995 9.63936 23.9002 10.1935C23.6072 10.7412 23.4575 11.343 23.4512 11.999V14.0339C23.4512 14.8874 23.6072 15.6198 23.9193 16.2312C24.2313 16.8362 24.6676 17.3012 25.2281 17.626C25.7886 17.9444 26.4445 18.1037 27.1961 18.1037C27.6992 18.1037 28.1546 18.0336 28.5622 17.8935C28.9698 17.747 29.3233 17.5336 29.6226 17.2534C29.922 16.9732 30.1481 16.6261 30.3009 16.2121L33.53 16.5751C33.3262 17.4286 32.9377 18.1737 32.3645 18.8106C31.7976 19.4411 31.0716 19.9315 30.1863 20.2818C29.301 20.6257 28.2884 20.7977 27.1483 20.7977Z" fill="#F8F9FA"/>
<path d="M40.0573 11.9131V20.5111H36.599V5.83712H39.9045V8.33055H40.0764C40.414 7.50896 40.9522 6.85614 41.6909 6.37211C42.4361 5.88807 43.3564 5.64605 44.4519 5.64605C45.4645 5.64605 46.3466 5.86259 47.0982 6.29568C47.8561 6.72876 48.442 7.3561 48.856 8.17769C49.2763 8.99928 49.4833 9.99602 49.477 11.1679V20.5111H46.0186V11.7029C46.0186 10.7221 45.7639 9.95462 45.2544 9.40053C44.7512 8.84643 44.0538 8.56938 43.1622 8.56938C42.5571 8.56938 42.0189 8.70313 41.5476 8.97062C41.0827 9.23175 40.7165 9.6107 40.449 10.1075C40.1879 10.6043 40.0573 11.2061 40.0573 11.9131Z" fill="#F8F9FA"/>
<path d="M59.4889 20.7977C58.0177 20.7977 56.7471 20.492 55.6771 19.8806C54.6135 19.2628 53.7951 18.3903 53.2219 17.263C52.6487 16.1293 52.3621 14.795 52.3621 13.2601C52.3621 11.7507 52.6487 10.4259 53.2219 9.28589C53.8014 8.13948 54.6103 7.24783 55.6484 6.61094C56.6866 5.96768 57.9062 5.64605 59.3074 5.64605C60.2118 5.64605 61.0652 5.79253 61.8677 6.0855C62.6765 6.3721 63.3899 6.81793 64.0076 7.42298C64.6318 8.02802 65.1222 8.79866 65.4789 9.7349C65.8355 10.6648 66.0139 11.7729 66.0139 13.0595V14.1199H53.9861V11.7889H62.6988C62.6925 11.1265 62.5492 10.5374 62.2689 10.0215C61.9887 9.49924 61.597 9.08845 61.0939 8.78911C60.5971 8.48977 60.0175 8.3401 59.3551 8.3401C58.6482 8.3401 58.0272 8.51206 57.4922 8.85598C56.9572 9.19354 56.5401 9.63936 56.2407 10.1935C55.9478 10.7412 55.7981 11.343 55.7917 11.999V14.0339C55.7917 14.8874 55.9478 15.6198 56.2599 16.2312C56.5719 16.8362 57.0082 17.3012 57.5687 17.626C58.1291 17.9444 58.7851 18.1037 59.5367 18.1037C60.0398 18.1037 60.4952 18.0336 60.9028 17.8935C61.3104 17.747 61.6639 17.5336 61.9632 17.2534C62.2626 16.9732 62.4887 16.6261 62.6415 16.2121L65.8706 16.5751C65.6667 17.4286 65.2782 18.1737 64.705 18.8106C64.1382 19.4411 63.4121 19.9315 62.5269 20.2818C61.6416 20.6257 60.6289 20.7977 59.4889 20.7977Z" fill="#F8F9FA"/>
<path d="M68.9396 20.5111V5.83712H72.2928V8.28278H72.4457C72.7132 7.43572 73.1717 6.7829 73.8214 6.32434C74.4773 5.85941 75.2257 5.62694 76.0664 5.62694C76.2575 5.62694 76.4708 5.63649 76.7065 5.6556C76.9485 5.66834 77.1491 5.69063 77.3083 5.72247V8.90375C77.1618 8.8528 76.9294 8.80822 76.6109 8.77C76.2989 8.72542 75.9963 8.70313 75.7034 8.70313C75.0728 8.70313 74.506 8.84006 74.0029 9.11392C73.5061 9.38142 73.1144 9.754 72.8278 10.2317C72.5412 10.7093 72.3979 11.2603 72.3979 11.8844V20.5111H68.9396Z" fill="#F8F9FA"/>
<path d="M79.6059 20.5111V5.83712H83.0642V20.5111H79.6059ZM81.3446 3.75448C80.7969 3.75448 80.3256 3.57296 79.9307 3.20994C79.5359 2.84054 79.3384 2.3979 79.3384 1.88202C79.3384 1.35976 79.5359 0.917124 79.9307 0.554095C80.3256 0.184698 80.7969 0 81.3446 0C81.8987 0 82.37 0.184698 82.7585 0.554095C83.1534 0.917124 83.3508 1.35976 83.3508 1.88202C83.3508 2.3979 83.1534 2.84054 82.7585 3.20994C82.37 3.57296 81.8987 3.75448 81.3446 3.75448Z" fill="#F8F9FA"/>
<path d="M93.0213 20.7977C91.5564 20.7977 90.2985 20.4761 89.2477 19.8328C88.2032 19.1896 87.3975 18.3011 86.8307 17.1674C86.2702 16.0274 85.99 14.7154 85.99 13.2314C85.99 11.7411 86.2766 10.4259 86.8498 9.28589C87.423 8.13948 88.2318 7.24783 89.2763 6.61094C90.3272 5.96768 91.5691 5.64605 93.0021 5.64605C94.1931 5.64605 95.2472 5.86578 96.1643 6.30523C97.0878 6.73832 97.8234 7.35292 98.3711 8.14903C98.9189 8.93878 99.231 9.86227 99.3074 10.9195H96.0019C95.8682 10.2126 95.5497 9.62344 95.0466 9.15214C94.5498 8.67447 93.8842 8.43563 93.0499 8.43563C92.343 8.43563 91.722 8.6267 91.187 9.00884C90.652 9.3846 90.2349 9.92596 89.9355 10.6329C89.6425 11.3399 89.4961 12.1869 89.4961 13.1741C89.4961 14.174 89.6425 15.0338 89.9355 15.7535C90.2285 16.4668 90.6393 17.0178 91.1679 17.4063C91.7029 17.7884 92.3302 17.9795 93.0499 17.9795C93.5594 17.9795 94.0148 17.8839 94.416 17.6929C94.8237 17.4954 95.1644 17.212 95.4383 16.8426C95.7121 16.4732 95.9 16.0242 96.0019 15.4956H99.3074C99.2246 16.5337 98.9189 17.454 98.3903 18.2565C97.8616 19.0526 97.142 19.6768 96.2312 20.129C95.3204 20.5748 94.2505 20.7977 93.0213 20.7977Z" fill="#F8F9FA"/>
<path d="M125.72 7.54717H122.147C122.045 6.96123 121.857 6.44216 121.583 5.98997C121.31 5.53141 120.969 5.1429 120.561 4.82446C120.154 4.50601 119.689 4.26718 119.166 4.10795C118.651 3.94236 118.093 3.85957 117.495 3.85957C116.431 3.85957 115.488 4.12706 114.667 4.66205C113.845 5.19067 113.202 5.96768 112.737 6.99307C112.272 8.0121 112.04 9.25723 112.04 10.7284C112.04 12.2251 112.272 13.4862 112.737 14.5116C113.208 15.5306 113.852 16.3013 114.667 16.8235C115.488 17.3394 116.428 17.5973 117.485 17.5973C118.071 17.5973 118.619 17.5209 119.128 17.368C119.644 17.2088 120.106 16.9764 120.513 16.6707C120.927 16.3649 121.275 15.9892 121.555 15.5434C121.841 15.0975 122.039 14.588 122.147 14.0148L125.72 14.0339C125.586 14.9638 125.297 15.8363 124.851 16.6515C124.411 17.4668 123.835 18.1865 123.122 18.8106C122.408 19.4284 121.574 19.9124 120.619 20.2627C119.663 20.6066 118.603 20.7786 117.437 20.7786C115.718 20.7786 114.183 20.3805 112.833 19.5844C111.482 18.7883 110.419 17.6387 109.642 16.1357C108.865 14.6326 108.476 12.8302 108.476 10.7284C108.476 8.62033 108.868 6.81793 109.651 5.32123C110.435 3.81817 111.501 2.66858 112.852 1.87246C114.202 1.07635 115.73 0.67829 117.437 0.67829C118.526 0.67829 119.539 0.831144 120.475 1.13685C121.412 1.44256 122.246 1.89157 122.978 2.48388C123.711 3.06982 124.313 3.78951 124.784 4.64294C125.262 5.49001 125.574 6.45809 125.72 7.54717Z" fill="#F8F9FA"/>
<path d="M135.214 20.7977C133.781 20.7977 132.539 20.4824 131.488 19.8519C130.437 19.2214 129.622 18.3393 129.042 17.2056C128.469 16.072 128.182 14.7472 128.182 13.2314C128.182 11.7156 128.469 10.3877 129.042 9.24767C129.622 8.10764 130.437 7.22236 131.488 6.59183C132.539 5.96131 133.781 5.64605 135.214 5.64605C136.647 5.64605 137.889 5.96131 138.94 6.59183C139.99 7.22236 140.802 8.10764 141.376 9.24767C141.955 10.3877 142.245 11.7156 142.245 13.2314C142.245 14.7472 141.955 16.072 141.376 17.2056C140.802 18.3393 139.99 19.2214 138.94 19.8519C137.889 20.4824 136.647 20.7977 135.214 20.7977ZM135.233 18.0272C136.01 18.0272 136.66 17.8139 137.182 17.3872C137.704 16.9541 138.092 16.3745 138.347 15.6484C138.608 14.9224 138.739 14.1135 138.739 13.2219C138.739 12.3239 138.608 11.5118 138.347 10.7858C138.092 10.0533 137.704 9.47058 137.182 9.0375C136.66 8.60441 136.01 8.38787 135.233 8.38787C134.437 8.38787 133.774 8.60441 133.246 9.0375C132.724 9.47058 132.332 10.0533 132.071 10.7858C131.816 11.5118 131.689 12.3239 131.689 13.2219C131.689 14.1135 131.816 14.9224 132.071 15.6484C132.332 16.3745 132.724 16.9541 133.246 17.3872C133.774 17.8139 134.437 18.0272 135.233 18.0272Z" fill="#F8F9FA"/>
<path d="M154.533 14.3396V5.83712H157.991V20.5111H154.638V17.903H154.485C154.154 18.7246 153.61 19.3965 152.852 19.9188C152.1 20.441 151.173 20.7022 150.072 20.7022C149.11 20.7022 148.26 20.4888 147.521 20.0621C146.788 19.629 146.215 19.0017 145.801 18.1801C145.387 17.3521 145.18 16.3522 145.18 15.1803V5.83712H148.639V14.6453C148.639 15.5752 148.893 16.314 149.403 16.8617C149.912 17.4094 150.581 17.6833 151.409 17.6833C151.919 17.6833 152.412 17.5591 152.89 17.3107C153.368 17.0623 153.759 16.6929 154.065 16.2025C154.377 15.7058 154.533 15.0848 154.533 14.3396Z" fill="#F8F9FA"/>
<path d="M161.548 20.5111V5.83712H164.901V8.28278H165.054C165.321 7.43572 165.78 6.7829 166.429 6.32434C167.085 5.85941 167.834 5.62694 168.674 5.62694C168.866 5.62694 169.079 5.63649 169.315 5.6556C169.557 5.66834 169.757 5.69063 169.916 5.72247V8.90375C169.77 8.8528 169.537 8.80822 169.219 8.77C168.907 8.72542 168.604 8.70313 168.311 8.70313C167.681 8.70313 167.114 8.84006 166.611 9.11392C166.114 9.38142 165.722 9.754 165.436 10.2317C165.149 10.7093 165.006 11.2603 165.006 11.8844V20.5111H161.548Z" fill="#F8F9FA"/>
<path d="M183.812 9.71579L180.659 10.0597C180.57 9.74126 180.414 9.44193 180.191 9.16169C179.975 8.88146 179.682 8.65536 179.312 8.4834C178.943 8.31144 178.491 8.22546 177.956 8.22546C177.236 8.22546 176.631 8.3815 176.14 8.69358C175.656 9.00565 175.418 9.41008 175.424 9.90686C175.418 10.3336 175.574 10.6807 175.892 10.9482C176.217 11.2157 176.752 11.4354 177.497 11.6074L180 12.1423C181.388 12.4417 182.42 12.9162 183.095 13.5658C183.777 14.2154 184.121 15.0657 184.127 16.1166C184.121 17.04 183.85 17.8553 183.315 18.5622C182.786 19.2628 182.051 19.8105 181.108 20.2054C180.166 20.6003 179.083 20.7977 177.86 20.7977C176.064 20.7977 174.618 20.4219 173.523 19.6704C172.427 18.9125 171.775 17.8585 171.564 16.5082L174.937 16.1834C175.09 16.8458 175.414 17.3458 175.911 17.6833C176.408 18.0209 177.054 18.1896 177.85 18.1896C178.672 18.1896 179.331 18.0209 179.828 17.6833C180.331 17.3458 180.583 16.9286 180.583 16.4318C180.583 16.0115 180.42 15.6644 180.096 15.3905C179.777 15.1166 179.28 14.9065 178.605 14.76L176.102 14.2345C174.695 13.9416 173.653 13.448 172.978 12.7538C172.303 12.0532 171.969 11.1679 171.975 10.0979C171.969 9.19354 172.214 8.41016 172.711 7.74779C173.214 7.07906 173.911 6.56317 174.803 6.20014C175.701 5.83075 176.736 5.64605 177.908 5.64605C179.627 5.64605 180.981 6.01226 181.968 6.74469C182.962 7.47711 183.576 8.46748 183.812 9.71579Z" fill="#F8F9FA"/>
<path d="M193.475 20.7977C192.004 20.7977 190.733 20.492 189.663 19.8806C188.6 19.2628 187.781 18.3903 187.208 17.263C186.635 16.1293 186.348 14.795 186.348 13.2601C186.348 11.7507 186.635 10.4259 187.208 9.28589C187.788 8.13948 188.596 7.24783 189.635 6.61094C190.673 5.96768 191.892 5.64605 193.294 5.64605C194.198 5.64605 195.051 5.79253 195.854 6.0855C196.663 6.3721 197.376 6.81793 197.994 7.42298C198.618 8.02802 199.108 8.79866 199.465 9.7349C199.822 10.6648 200 11.7729 200 13.0595V14.1199H187.972V11.7889H196.685C196.679 11.1265 196.535 10.5374 196.255 10.0215C195.975 9.49924 195.583 9.08845 195.08 8.78911C194.583 8.48977 194.004 8.3401 193.341 8.3401C192.634 8.3401 192.013 8.51206 191.478 8.85598C190.943 9.19354 190.526 9.63936 190.227 10.1935C189.934 10.7412 189.784 11.343 189.778 11.999V14.0339C189.778 14.8874 189.934 15.6198 190.246 16.2312C190.558 16.8362 190.994 17.3012 191.555 17.626C192.115 17.9444 192.771 18.1037 193.523 18.1037C194.026 18.1037 194.481 18.0336 194.889 17.8935C195.297 17.747 195.65 17.5336 195.949 17.2534C196.249 16.9732 196.475 16.6261 196.628 16.2121L199.857 16.5751C199.653 17.4286 199.264 18.1737 198.691 18.8106C198.124 19.4411 197.398 19.9315 196.513 20.2818C195.628 20.6257 194.615 20.7977 193.475 20.7977Z" fill="#F8F9FA"/>
</svg>
